#Comment line ignore any data following # character 
#Hierarchical Translation and Rotation (.htr) file 
[Header]	
#Header keywords are followed by a single value 
FileType HTR		#Single word string
DataType HTRS		#Translation followed by rotation and scale data
FileVersion 1		#integer
NumSegments 84		#integer
NumFrames 2		#integer
DataFrameRate 30		#integer, data frame rate in this file
EulerRotationOrder ZYX
CalibrationUnits mm
RotationUnits Degrees
GlobalAxisofGravity Y
BoneLengthAxis Y
ScaleFactor 1.00
[SegmentNames&Hierarchy]
#CHILD	PARENT
MASTER GLOBAL
root MASTER
chest root
L_mid_tent01 root
R_mid_tent01 root
spine01 root
Bip01_Neck chest
L_humerus chest
R_humerus chest
weapon_bone chest
Bip01_Head Bip01_Neck
eye_left_bone Bip01_Head
eye_right_bone Bip01_Head
L_forearm L_humerus
L_front_hand L_forearm
L_weapon_bone L_forearm
L_front_hand01_01 L_front_hand
L_front_hand02_01 L_front_hand
L_front_hand03_01 L_front_hand
L_front_hand01_02 L_front_hand01_01
L_front_hand02_02 L_front_hand02_01
L_front_hand03_02 L_front_hand03_01
R_forearm R_humerus
R_front_hand R_forearm
R_weapon_bone R_forearm
R_front_hand01_01 R_front_hand
R_front_hand02_01 R_front_hand
R_front_hand03_01 R_front_hand
R_front_hand01_02 R_front_hand01_01
R_front_hand02_02 R_front_hand02_01
R_front_hand03_02 R_front_hand03_01
null_rope01_connect L_mid_tent01
Rope1_Seg01 null_rope01_connect
Rope1_Seg02 Rope1_Seg01
Rope1_Seg03 Rope1_Seg02
Rope1_Seg04 Rope1_Seg03
Rope1_Seg05 Rope1_Seg04
Rope1_Seg06 Rope1_Seg05
Rope1_Seg07 Rope1_Seg06
Rope1_Seg09 Rope1_Seg07
L_mid_hand01 Rope1_Seg09
L_mid_hand02 Rope1_Seg09
L_mid_hand03 Rope1_Seg09
null_rope02_connect R_mid_tent01
Rope2_Seg01 null_rope02_connect
Rope2_Seg02 Rope2_Seg01
Rope2_Seg03 Rope2_Seg02
Rope2_Seg04 Rope2_Seg03
Rope2_Seg05 Rope2_Seg04
Rope2_Seg06 Rope2_Seg05
Rope2_Seg07 Rope2_Seg06
Rope2_Seg09 Rope2_Seg07
R_mid_hand01 Rope2_Seg09
R_mid_hand02 Rope2_Seg09
R_mid_hand03 Rope2_Seg09
spine02 spine01
spine03 spine02
pelvis spine03
null_rope03_connect pelvis
null_rope04_connect pelvis
Rope3_Seg01 null_rope03_connect
Rope3_Seg02 Rope3_Seg01
Rope3_Seg03 Rope3_Seg02
Rope3_Seg04 Rope3_Seg03
Rope3_Seg05 Rope3_Seg04
Rope3_Seg06 Rope3_Seg05
Rope3_Seg07 Rope3_Seg06
Rope3_Seg08 Rope3_Seg07
Rope3_Seg09 Rope3_Seg08
R_rear_hand01 Rope3_Seg09
R_rear_hand02 Rope3_Seg09
R_rear_hand03 Rope3_Seg09
Rope4_Seg01 null_rope04_connect
Rope4_Seg02 Rope4_Seg01
Rope4_Seg03 Rope4_Seg02
Rope4_Seg04 Rope4_Seg03
Rope4_Seg05 Rope4_Seg04
Rope4_Seg06 Rope4_Seg05
Rope4_Seg07 Rope4_Seg06
Rope4_Seg08 Rope4_Seg07
Rope4_Seg09 Rope4_Seg08
L_rear_hand01 Rope4_Seg09
L_rear_hand02 Rope4_Seg09
L_rear_hand03 Rope4_Seg09
[BasePosition]
#SegmentName Tx, Ty, Tz, Rx, Ry, Rz, BoneLength
MASTER 0.000000 0.000000 0.000000 -90.000000 0.000000 0.000000 10.000000 
root 0.000000 0.000000 0.000000 0.000000 0.000000 0.000000 10.000000 
chest 0.000000 0.000000 0.000000 0.000000 0.000000 0.000000 10.000000 
L_mid_tent01 0.000000 0.000000 0.000000 0.000000 0.000000 0.000000 10.000000 
R_mid_tent01 0.000000 0.000000 0.000000 0.000000 0.000000 0.000000 10.000000 
spine01 0.000000 0.000000 0.000000 0.000000 0.000000 0.000000 10.000000 
Bip01_Neck 0.000000 0.000000 0.000000 0.000000 0.000000 0.000000 10.000000 
L_humerus 0.000000 0.000000 0.000000 0.000000 0.000000 0.000000 10.000000 
R_humerus 0.000000 0.000000 0.000000 0.000000 0.000000 0.000000 10.000000 
weapon_bone 0.000000 0.000000 0.000000 0.000000 0.000000 0.000000 10.000000 
Bip01_Head 0.000000 0.000000 0.000000 0.000000 0.000000 0.000000 10.000000 
eye_left_bone 0.000000 0.000000 0.000000 0.000000 0.000000 0.000000 10.000000 
eye_right_bone 0.000000 0.000000 0.000000 0.000000 0.000000 0.000000 10.000000 
L_forearm 0.000000 0.000000 0.000000 0.000000 0.000000 0.000000 10.000000 
L_front_hand 0.000000 0.000000 0.000000 0.000000 0.000000 0.000000 10.000000 
L_weapon_bone 0.000000 0.000000 0.000000 0.000000 0.000000 0.000000 10.000000 
L_front_hand01_01 0.000000 0.000000 0.000000 0.000000 0.000000 0.000000 10.000000 
L_front_hand02_01 0.000000 0.000000 0.000000 0.000000 0.000000 0.000000 10.000000 
L_front_hand03_01 0.000000 0.000000 0.000000 0.000000 0.000000 0.000000 10.000000 
L_front_hand01_02 0.000000 0.000000 0.000000 0.000000 0.000000 0.000000 10.000000 
L_front_hand02_02 0.000000 0.000000 0.000000 0.000000 0.000000 0.000000 10.000000 
L_front_hand03_02 0.000000 0.000000 0.000000 0.000000 0.000000 0.000000 10.000000 
R_forearm 0.000000 0.000000 0.000000 0.000000 0.000000 0.000000 10.000000 
R_front_hand 0.000000 0.000000 0.000000 0.000000 0.000000 0.000000 10.000000 
R_weapon_bone 0.000000 0.000000 0.000000 0.000000 0.000000 0.000000 10.000000 
R_front_hand01_01 0.000000 0.000000 0.000000 0.000000 0.000000 0.000000 10.000000 
R_front_hand02_01 0.000000 0.000000 0.000000 0.000000 0.000000 0.000000 10.000000 
R_front_hand03_01 0.000000 0.000000 0.000000 0.000000 0.000000 0.000000 10.000000 
R_front_hand01_02 0.000000 0.000000 0.000000 0.000000 0.000000 0.000000 10.000000 
R_front_hand02_02 0.000000 0.000000 0.000000 0.000000 0.000000 0.000000 10.000000 
R_front_hand03_02 0.000000 0.000000 0.000000 0.000000 0.000000 0.000000 10.000000 
null_rope01_connect 0.000000 0.000000 0.000000 0.000000 0.000000 0.000000 10.000000 
Rope1_Seg01 0.000000 0.000000 0.000000 0.000000 0.000000 0.000000 10.000000 
Rope1_Seg02 0.000000 0.000000 0.000000 0.000000 0.000000 0.000000 10.000000 
Rope1_Seg03 0.000000 0.000000 0.000000 0.000000 0.000000 0.000000 10.000000 
Rope1_Seg04 0.000000 0.000000 0.000000 0.000000 0.000000 0.000000 10.000000 
Rope1_Seg05 0.000000 0.000000 0.000000 0.000000 0.000000 0.000000 10.000000 
Rope1_Seg06 0.000000 0.000000 0.000000 0.000000 0.000000 0.000000 10.000000 
Rope1_Seg07 0.000000 0.000000 0.000000 0.000000 0.000000 0.000000 10.000000 
Rope1_Seg09 0.000000 0.000000 0.000000 0.000000 0.000000 0.000000 10.000000 
L_mid_hand01 0.000000 0.000000 0.000000 0.000000 0.000000 0.000000 10.000000 
L_mid_hand02 0.000000 0.000000 0.000000 0.000000 0.000000 0.000000 10.000000 
L_mid_hand03 0.000000 0.000000 0.000000 0.000000 0.000000 0.000000 10.000000 
null_rope02_connect 0.000000 0.000000 0.000000 0.000000 0.000000 0.000000 10.000000 
Rope2_Seg01 0.000000 0.000000 0.000000 0.000000 0.000000 0.000000 10.000000 
Rope2_Seg02 0.000000 0.000000 0.000000 0.000000 0.000000 0.000000 10.000000 
Rope2_Seg03 0.000000 0.000000 0.000000 0.000000 0.000000 0.000000 10.000000 
Rope2_Seg04 0.000000 0.000000 0.000000 0.000000 0.000000 0.000000 10.000000 
Rope2_Seg05 0.000000 0.000000 0.000000 0.000000 0.000000 0.000000 10.000000 
Rope2_Seg06 0.000000 0.000000 0.000000 0.000000 0.000000 0.000000 10.000000 
Rope2_Seg07 0.000000 0.000000 0.000000 0.000000 0.000000 0.000000 10.000000 
Rope2_Seg09 0.000000 0.000000 0.000000 0.000000 0.000000 0.000000 10.000000 
R_mid_hand01 0.000000 0.000000 0.000000 0.000000 0.000000 0.000000 10.000000 
R_mid_hand02 0.000000 0.000000 0.000000 0.000000 0.000000 0.000000 10.000000 
R_mid_hand03 0.000000 0.000000 0.000000 0.000000 0.000000 0.000000 10.000000 
spine02 0.000000 0.000000 0.000000 0.000000 0.000000 0.000000 10.000000 
spine03 0.000000 0.000000 0.000000 0.000000 0.000000 0.000000 10.000000 
pelvis 0.000000 0.000000 0.000000 0.000000 0.000000 0.000000 10.000000 
null_rope03_connect 0.000000 0.000000 0.000000 0.000000 0.000000 0.000000 10.000000 
null_rope04_connect 0.000000 0.000000 0.000000 0.000000 0.000000 0.000000 10.000000 
Rope3_Seg01 0.000000 0.000000 0.000000 0.000000 0.000000 0.000000 10.000000 
Rope3_Seg02 0.000000 0.000000 0.000000 0.000000 0.000000 0.000000 10.000000 
Rope3_Seg03 0.000000 0.000000 0.000000 0.000000 0.000000 0.000000 10.000000 
Rope3_Seg04 0.000000 0.000000 0.000000 0.000000 0.000000 0.000000 10.000000 
Rope3_Seg05 0.000000 0.000000 0.000000 0.000000 0.000000 0.000000 10.000000 
Rope3_Seg06 0.000000 0.000000 0.000000 0.000000 0.000000 0.000000 10.000000 
Rope3_Seg07 0.000000 0.000000 0.000000 0.000000 0.000000 0.000000 10.000000 
Rope3_Seg08 0.000000 0.000000 0.000000 0.000000 0.000000 0.000000 10.000000 
Rope3_Seg09 0.000000 0.000000 0.000000 0.000000 0.000000 0.000000 10.000000 
R_rear_hand01 0.000000 0.000000 0.000000 0.000000 0.000000 0.000000 10.000000 
R_rear_hand02 0.000000 0.000000 0.000000 0.000000 0.000000 0.000000 10.000000 
R_rear_hand03 0.000000 0.000000 0.000000 0.000000 0.000000 0.000000 10.000000 
Rope4_Seg01 0.000000 0.000000 0.000000 0.000000 0.000000 0.000000 10.000000 
Rope4_Seg02 0.000000 0.000000 0.000000 0.000000 0.000000 0.000000 10.000000 
Rope4_Seg03 0.000000 0.000000 0.000000 0.000000 0.000000 0.000000 10.000000 
Rope4_Seg04 0.000000 0.000000 0.000000 0.000000 0.000000 0.000000 10.000000 
Rope4_Seg05 0.000000 0.000000 0.000000 0.000000 0.000000 0.000000 10.000000 
Rope4_Seg06 0.000000 0.000000 0.000000 0.000000 0.000000 0.000000 10.000000 
Rope4_Seg07 0.000000 0.000000 0.000000 0.000000 0.000000 0.000000 10.000000 
Rope4_Seg08 0.000000 0.000000 0.000000 0.000000 0.000000 0.000000 10.000000 
Rope4_Seg09 0.000000 0.000000 0.000000 0.000000 0.000000 0.000000 10.000000 
L_rear_hand01 0.000000 0.000000 0.000000 0.000000 0.000000 0.000000 10.000000 
L_rear_hand02 0.000000 0.000000 0.000000 0.000000 0.000000 0.000000 10.000000 
L_rear_hand03 0.000000 0.000000 0.000000 0.000000 0.000000 0.000000 10.000000 
#Beginning of Data. Separated by tabs
#Fr	Tx	Ty	Tz	Rx	Ry	Rz	SF
[MASTER]
16 -141.305725 1803.338257 1794.269165 0.001660 0.001660 0.001660 2547.822266
17 -137.036865 1991.875732 1802.478760 0.001660 0.001660 0.001660 2689.847168
[root]
16 10.025844 111.731407 734.099060 -95.799911 -7.458165 -89.897591 742.620972
17 0.869741 158.660126 778.518188 -96.190277 -11.523763 -89.207359 794.521484
[chest]
16 -84.512650 -34.090519 0.000000 4.711534 10.083513 145.500504 91.129311
17 -84.512650 -34.090519 0.000000 2.468426 8.240129 144.190536 91.129311
[L_mid_tent01]
16 27.299126 22.179186 -249.918716 -0.109586 18.979359 80.965538 252.381714
17 27.299126 22.179188 -249.918716 -0.136843 18.701595 81.119820 252.381714
[R_mid_tent01]
16 23.228794 24.509907 226.238495 153.450485 -28.805231 66.784492 228.744751
17 23.228794 24.509907 226.238495 149.699249 -30.547520 66.664360 228.744751
[spine01]
16 -0.361383 -0.195265 0.000000 -0.000001 -0.000007 22.052340 0.410763
17 -0.361383 -0.195265 0.000000 -0.000001 -0.000007 22.052340 0.410763
[Bip01_Neck]
16 165.484543 71.581718 0.000119 176.643677 -1.657967 43.431911 180.302734
17 165.484543 71.581718 0.000119 176.643677 -1.657966 43.431908 180.302734
[L_humerus]
16 -13.983130 -135.272980 -120.471481 157.361694 67.746651 -110.857552 181.680161
17 -13.983130 -135.272980 -120.471481 162.537201 60.456589 -105.148979 181.680161
[R_humerus]
16 -13.983309 -135.273102 125.287651 -174.870880 -38.880108 -89.427559 184.909012
17 -13.983309 -135.273102 125.287651 -175.315201 -32.719784 -88.781494 184.909012
[weapon_bone]
16 235.964890 -300.705902 0.000000 0.000000 -89.951546 -128.212341 382.234833
17 235.964890 -300.705902 0.000000 0.000000 -89.951546 -128.212341 382.234833
[Bip01_Head]
16 213.334579 186.007950 7.814626 4.962490 2.797846 -43.898743 283.145996
17 213.337250 185.996552 7.899780 4.962490 2.797846 -43.898743 283.142883
[eye_left_bone]
16 -24.626970 125.451866 -64.772606 0.000000 -90.000000 -99.840431 143.318359
17 -24.626970 125.451866 -64.772606 0.000000 -90.000000 -99.840431 143.318359
[eye_right_bone]
16 -24.626970 125.451866 64.327362 0.000000 -89.965736 80.156380 143.117676
17 -24.626970 125.451866 64.327362 0.000000 -89.972023 80.156387 143.117676
[L_forearm]
16 322.776093 0.000000 -0.000119 0.000405 -0.002312 -109.885857 322.776093
17 322.776093 0.000000 -0.000119 0.000404 -0.002312 -109.819389 322.776093
[L_front_hand]
16 241.149185 -0.042021 -3.300071 49.010834 -1.833984 -27.425117 241.171753
17 241.149185 -0.042021 -3.300071 19.714808 -1.837144 -27.423819 241.171753
[L_weapon_bone]
16 156.183838 0.000000 0.000000 0.000014 0.000007 0.000001 156.183838
17 156.183838 0.000000 0.000000 0.000014 0.000007 0.000001 156.183838
[L_front_hand01_01]
16 86.095154 20.947098 -0.655860 -0.307662 -0.512638 68.898666 88.609184
17 86.095154 20.947098 -0.655860 -0.320916 -0.506937 70.186226 88.609184
[L_front_hand02_01]
16 86.935165 -11.437475 24.513514 145.311646 -56.611832 -50.692287 91.046425
17 86.935165 -11.437475 24.513514 146.956512 -57.330299 -52.653660 91.046425
[L_front_hand03_01]
16 86.637497 -14.123976 -20.424902 -145.445206 54.832184 -52.559963 90.126129
17 86.637497 -14.123976 -20.424902 -146.987762 55.547066 -54.435081 90.126129
[L_front_hand01_02]
16 71.020905 -0.000179 0.000030 0.000300 -0.002328 -104.690079 71.020905
17 71.020905 -0.000179 0.000030 0.000294 -0.002329 -104.402451 71.020905
[L_front_hand02_02]
16 71.020927 -0.000119 0.000060 0.000300 -0.002328 -104.690079 71.020927
17 71.020927 -0.000119 0.000060 0.000294 -0.002329 -104.402451 71.020927
[L_front_hand03_02]
16 71.020905 -0.000060 0.000060 0.000300 -0.002328 -104.690079 71.020905
17 71.020905 -0.000060 0.000060 0.000294 -0.002329 -104.402451 71.020905
[R_forearm]
16 322.776428 -0.000060 0.000030 0.201683 0.066447 -108.794418 322.776428
17 322.776428 -0.000060 0.000030 0.201707 0.066372 -108.751831 322.776428
[R_front_hand]
16 238.847015 -0.006795 2.210259 -171.241623 -10.643134 -26.311672 238.857239
17 238.847015 -0.006795 2.210259 -132.962891 -10.644146 -26.312435 238.857239
[R_weapon_bone]
16 155.664093 0.002503 -0.000030 0.003487 0.001180 -90.988930 155.664078
17 155.664093 0.002503 -0.000030 0.003487 0.001180 -90.988930 155.664078
[R_front_hand01_01]
16 87.624611 14.231146 22.918642 -147.368515 -57.500031 53.246616 91.683487
17 87.624611 14.231146 22.918642 -150.820541 -58.784569 57.311836 91.683487
[R_front_hand02_01]
16 89.356956 14.367283 -19.491137 147.772614 55.873154 55.617844 92.579636
17 89.356956 14.367283 -19.491137 151.027069 57.144753 59.518578 92.579636
[R_front_hand03_01]
16 87.286232 -22.307278 -0.143439 0.124412 -0.437303 -70.732674 90.091743
17 87.286232 -22.307278 -0.143439 0.144811 -0.432555 -73.232849 90.091743
[R_front_hand01_02]
16 71.020905 0.000060 0.000119 0.002331 -0.000274 103.397835 71.020905
17 71.020905 0.000060 0.000119 0.002332 -0.000271 103.276939 71.020905
[R_front_hand02_02]
16 71.020844 -0.000030 -0.000119 0.002331 -0.000274 103.397835 71.020836
17 71.020844 -0.000030 -0.000119 0.002332 -0.000271 103.276939 71.020836
[R_front_hand03_02]
16 71.020905 0.000000 0.000030 0.002331 -0.000274 103.397835 71.020905
17 71.020905 0.000000 0.000030 0.002332 -0.000271 103.276939 71.020905
[null_rope01_connect]
16 328.732483 0.000000 -0.000238 -165.994598 -65.297928 -177.359665 328.732483
17 328.732483 0.000000 -0.000238 -163.682693 -65.392899 -175.618988 328.732483
[Rope1_Seg01]
16 -0.000012 0.000026 0.000049 93.736847 -36.604534 -169.825363 0.000057
17 -0.000013 0.000025 0.000052 109.280952 -33.850384 166.007950 0.000059
[Rope1_Seg02]
16 139.999863 -0.000179 0.000000 4.002064 -9.090310 -9.888968 139.999863
17 139.999863 -0.000179 0.000000 0.527520 0.361293 -13.171511 139.999863
[Rope1_Seg03]
16 139.999924 0.000060 -0.000060 8.208480 -17.649275 -16.274723 139.999924
17 139.999924 0.000060 -0.000060 5.264287 -0.280371 -23.448551 139.999924
[Rope1_Seg04]
16 139.999924 -0.000060 -0.000119 6.673694 -22.356098 -13.089489 139.999924
17 139.999924 -0.000060 -0.000119 14.560040 -3.503959 -25.062012 139.999924
[Rope1_Seg05]
16 139.999832 0.000119 -0.000060 6.278159 -14.080783 -21.001528 139.999832
17 139.999832 0.000119 -0.000060 34.916718 -3.405807 -33.097111 139.999832
[Rope1_Seg06]
16 139.999954 0.000119 -0.000060 23.351530 -20.210758 -44.661987 139.999954
17 139.999954 0.000119 -0.000060 49.540825 -20.271830 -28.800425 139.999954
[Rope1_Seg07]
16 139.999985 0.000060 0.000000 10.242618 -15.013463 -14.229372 139.999985
17 139.999985 0.000060 0.000000 9.736951 -13.498425 -1.448251 139.999985
[Rope1_Seg09]
16 121.602913 0.000119 -0.000089 -89.793175 -1.359789 0.847147 121.602913
17 121.602913 0.000119 -0.000089 -89.793175 -1.359789 0.847147 121.602913
[L_mid_hand01]
16 103.859421 1.038730 8.195221 112.678772 -49.980732 -18.276018 104.187431
17 103.859421 1.038730 8.195221 114.394852 -53.111439 -20.468830 104.187431
[L_mid_hand02]
16 105.572853 -4.139662 -10.864139 -152.571289 36.560631 -48.342625 106.211075
17 105.572853 -4.139662 -10.864139 -154.909470 38.072205 -52.197872 106.211075
[L_mid_hand03]
16 104.641464 17.579376 -3.913581 -11.926217 14.597142 53.941059 106.179977
17 104.641464 17.579376 -3.913581 -11.031654 15.280054 57.403896 106.179977
[null_rope02_connect]
16 328.732849 0.000179 -0.000119 -96.057587 53.230507 48.215542 328.732849
17 328.732849 0.000179 -0.000119 -89.298058 48.772968 49.635452 328.732849
[Rope2_Seg01]
16 0.000050 0.000104 0.000000 -28.922993 -61.297539 15.084432 0.000115
17 0.000051 0.000101 0.000000 -33.443638 -60.213501 20.412426 0.000113
[Rope2_Seg02]
16 139.999741 -0.000060 -0.000119 0.503627 5.631929 6.868816 139.999756
17 139.999741 -0.000060 -0.000119 0.177082 7.066733 1.717221 139.999756
[Rope2_Seg03]
16 140.000107 0.000030 0.000000 0.754410 26.880709 21.390619 140.000107
17 140.000107 0.000030 0.000000 -3.666841 29.199806 -2.053068 140.000107
[Rope2_Seg04]
16 139.999802 0.000000 -0.000060 -1.535502 13.203310 61.219547 139.999802
17 139.999802 0.000000 -0.000060 -16.512703 45.456745 69.342140 139.999802
[Rope2_Seg05]
16 139.999985 -0.000060 0.000119 -0.143674 -13.363452 18.734966 139.999985
17 139.999985 -0.000060 0.000119 -9.985859 -25.683771 32.548271 139.999985
[Rope2_Seg06]
16 139.999893 -0.000030 -0.000119 1.538256 -1.792381 5.277444 139.999893
17 139.999893 -0.000030 -0.000119 0.587394 -3.138266 5.009003 139.999893
[Rope2_Seg07]
16 139.999893 0.000060 -0.000060 0.917126 -0.831268 2.695756 139.999893
17 139.999893 0.000060 -0.000060 0.392634 -1.436068 2.356198 139.999893
[Rope2_Seg09]
16 121.338966 0.000089 -0.000060 33.793236 -1.359788 -0.847141 121.338966
17 121.338966 0.000089 -0.000060 33.793236 -1.359788 -0.847141 121.338966
[R_mid_hand01]
16 104.680779 11.144459 -10.335981 -37.204079 31.906813 37.576260 105.778534
17 104.680779 11.144459 -10.335981 -36.871494 32.306065 38.202835 105.778534
[R_mid_hand02]
16 104.070427 2.443552 8.231699 70.367462 -42.427391 14.067809 104.424065
17 104.070427 2.443552 8.231699 70.159821 -43.055164 14.371493 104.424065
[R_mid_hand03]
16 106.028137 -11.221827 -5.996406 -169.893616 12.226661 -47.211018 106.788818
17 106.028137 -11.221827 -5.996406 -170.040359 12.343988 -47.884888 106.788818
[spine02]
16 129.756927 0.001550 0.000119 0.540809 -4.023483 -15.537113 129.756927
17 129.756927 0.001550 0.000119 0.541249 -4.023425 -15.549616 129.756927
[spine03]
16 78.614014 0.081683 -4.899000 2.006636 3.774919 18.112587 78.766556
17 78.614006 0.081686 -4.898999 2.004730 3.775326 18.104177 78.766541
[pelvis]
16 169.435242 0.051022 0.000000 -0.070549 -0.177649 17.408245 169.435257
17 169.435242 0.051022 0.000000 -0.070538 -0.177654 17.400740 169.435257
[null_rope03_connect]
16 -1.257226 -2.466202 137.391083 -171.885544 -85.528450 -132.665756 137.418976
17 -1.257226 -2.466202 137.391083 -175.985229 -85.233955 -124.475624 137.418976
[null_rope04_connect]
16 -1.259640 -2.480268 -137.844437 -171.885544 -85.528450 -132.665756 137.872513
17 -1.259640 -2.480268 -137.844437 -175.985229 -85.233955 -124.475624 137.872513
[Rope3_Seg01]
16 0.000000 0.000000 0.000000 -147.337601 -43.675018 -59.260479 0.000000
17 0.000000 0.000000 0.000000 -155.019897 -56.589108 -57.034363 0.000000
[Rope3_Seg02]
16 139.999924 -0.000119 0.000060 0.045867 -6.991590 -13.075747 139.999924
17 139.999924 -0.000119 0.000060 -2.232230 -1.404038 -9.698557 139.999924
[Rope3_Seg03]
16 139.999924 -0.000119 0.000119 -66.304184 -20.347435 -46.736176 139.999924
17 139.999924 -0.000119 0.000119 -13.073446 -2.481516 -24.667223 139.999924
[Rope3_Seg04]
16 139.999924 0.000119 0.000000 -100.367722 30.250834 -31.805559 139.999924
17 139.999924 0.000119 0.000000 -89.078278 5.530083 -46.725315 139.999924
[Rope3_Seg05]
16 139.999924 -0.000238 0.000060 -2.014935 11.768794 10.440811 139.999924
17 139.999924 -0.000238 0.000060 -20.916588 25.457506 2.236898 139.999924
[Rope3_Seg06]
16 139.999893 -0.000119 -0.000060 -0.284596 8.072419 7.692131 139.999893
17 139.999893 -0.000119 -0.000060 -3.852966 15.418530 7.961731 139.999893
[Rope3_Seg07]
16 139.999771 0.000060 -0.000119 0.340191 4.765307 5.036708 139.999771
17 139.999771 0.000060 -0.000119 -0.747651 9.374348 5.763752 139.999771
[Rope3_Seg08]
16 139.999985 -0.000060 0.000000 0.456755 2.746073 2.882250 139.999985
17 139.999985 -0.000060 0.000000 0.131002 4.902585 3.136195 139.999985
[Rope3_Seg09]
16 90.185997 -0.000179 -0.000060 89.793228 -1.359877 -0.847183 90.185997
17 90.185997 -0.000179 -0.000060 89.793228 -1.359877 -0.847183 90.185997
[R_rear_hand01]
16 103.366196 -6.073594 -10.757982 -164.972809 19.789423 -40.983833 104.101845
17 103.366196 -6.073594 -10.757982 -165.575058 20.224255 -42.745789 104.101845
[R_rear_hand02]
16 100.509819 12.039542 -7.992327 -30.544968 25.097782 38.729172 101.543350
17 100.509819 12.039542 -7.992327 -29.842968 25.960022 40.362484 101.543350
[R_rear_hand03]
16 101.539970 5.215704 5.435467 82.376854 -41.657890 8.948382 101.819031
17 101.539970 5.215704 5.435467 82.169113 -43.351929 9.256878 101.819031
[Rope4_Seg01]
16 0.000010 0.000038 -0.000114 114.219147 -32.710220 -178.218475 0.000121
17 0.000010 0.000038 -0.000114 97.850258 -31.418665 -170.620117 0.000121
[Rope4_Seg02]
16 139.999985 0.000060 0.000119 -28.085186 -3.102489 -10.034405 139.999985
17 139.999985 0.000060 0.000119 -23.697973 2.300882 -10.542031 139.999985
[Rope4_Seg03]
16 139.999924 0.000000 -0.000238 -52.900223 2.641295 -15.999341 139.999924
17 139.999924 0.000000 -0.000238 -29.721886 9.313640 -13.795071 139.999924
[Rope4_Seg04]
16 139.999985 0.000000 0.000119 -32.097721 13.964604 -12.393750 139.999985
17 139.999985 0.000000 0.000119 -22.701765 15.740260 -12.983056 139.999985
[Rope4_Seg05]
16 139.999802 -0.000060 -0.000119 0.894482 27.991341 11.046686 139.999802
17 139.999802 -0.000060 -0.000119 -1.849146 25.299591 5.814871 139.999802
[Rope4_Seg06]
16 139.999924 0.000000 0.000060 3.133268 19.126871 12.608425 139.999924
17 139.999924 0.000000 0.000060 1.580793 14.659593 8.760525 139.999924
[Rope4_Seg07]
16 139.999802 0.000000 0.000000 0.399663 7.788298 3.732515 139.999802
17 139.999802 0.000000 0.000000 0.291307 6.568201 2.629279 139.999802
[Rope4_Seg08]
16 139.999924 0.000000 0.000119 -1.391251 3.902756 1.825033 139.999924
17 139.999924 0.000000 0.000119 -1.388437 3.455972 1.325532 139.999924
[Rope4_Seg09]
16 90.185791 0.000060 0.000060 -135.617828 2.228885 0.850567 90.185791
17 90.185791 0.000060 0.000060 -135.617828 2.228885 0.850567 90.185791
[L_rear_hand01]
16 101.696655 -8.392275 -7.654577 -24.658649 -30.887175 128.783096 102.329041
17 101.696655 -8.392275 -7.654577 -22.991795 -32.088032 125.593971 102.329041
[L_rear_hand02]
16 102.726799 -1.568258 5.773216 80.302361 53.966496 168.267441 102.900848
17 102.726799 -1.568258 5.773216 79.542931 56.888847 167.348526 102.900848
[L_rear_hand03]
16 104.552910 9.721220 -10.420293 -169.691223 -22.530382 -125.995598 105.519653
17 104.552910 9.721220 -10.420293 -170.919907 -23.031248 -122.815849 105.519653
